<svg width="282" height="266" viewBox="0 0 282 266" fill="none" xmlns="http://www.w3.org/2000/svg">
<path d="M80.878 102.12C90.5081 102.12 98.315 94.3087 98.315 84.6733C98.315 75.0379 90.5081 67.2271 80.878 67.2271C71.2478 67.2271 63.4409 75.0379 63.4409 84.6733C63.4409 94.3087 71.2478 102.12 80.878 102.12Z" fill="black"/>
<path d="M188.839 102.12C198.469 102.12 206.276 94.3087 206.276 84.6733C206.276 75.0379 198.469 67.2271 188.839 67.2271C179.209 67.2271 171.402 75.0379 171.402 84.6733C171.402 94.3087 179.209 102.12 188.839 102.12Z" fill="black"/>
<path d="M228.165 8.20622C199.598 3.00942 170.289 0.0397704 141.351 0.0397704C112.784 -0.33143 83.4748 1.89584 54.5368 6.72144C33.3898 10.4334 12.2429 30.8495 7.79091 52.3791C2.59691 79.1055 0 105.832 0 132.558C0 159.285 2.59691 186.011 7.79091 213.109C12.2429 234.267 33.0188 254.683 54.5368 258.766C81.6198 263.221 109.445 265.448 136.528 265.448C138.012 265.448 139.496 265.448 140.98 265.448C169.918 265.077 198.856 262.478 227.794 257.281C248.941 253.198 269.717 232.782 274.169 211.624C279.363 185.64 281.96 158.913 281.96 132.929C281.96 106.945 279.363 80.2191 274.169 54.2351C270.088 32.7055 249.312 12.2894 228.165 8.20622ZM248.941 206.056C246.715 216.449 234.101 229.07 223.342 231.297C196.259 236.123 168.434 239.093 141.351 239.093C113.897 239.464 86.443 237.237 59.36 232.782C48.601 230.926 35.9869 218.305 33.7609 207.912C28.9379 183.041 26.3409 157.8 26.3409 132.558C26.3409 107.688 28.9379 82.075 33.7609 57.5758C35.9869 46.811 48.601 34.1902 59.36 32.3342C85.33 28.251 111.3 26.0238 137.27 26.0238C138.754 26.0238 140.238 26.0238 141.722 26.0238C169.176 26.395 196.63 28.9935 223.713 33.8191C234.472 36.0463 247.457 48.2957 249.312 58.6893C254.135 83.1885 256.361 108.059 256.361 132.558C256.361 157.057 253.764 181.928 248.941 206.056Z" fill="black"/>
<path d="M195.517 155.944C190.323 151.118 182.532 151.489 177.709 156.315L164.724 169.307L150.255 155.944C145.061 151.118 137.27 151.489 132.447 156.315L119.091 169.678L104.622 156.315C99.4279 151.489 91.6369 151.86 86.8139 156.686L64.5539 178.587C59.3599 183.784 59.3599 191.95 64.5539 196.776C69.7479 201.972 77.9099 201.972 83.1039 196.776L96.46 183.784L110.929 197.147C113.526 199.374 116.494 200.488 119.833 200.488C123.172 200.488 126.511 199.374 129.108 196.776L142.464 183.784L155.078 195.662C155.449 196.033 155.82 196.404 156.191 196.776C158.788 199.374 162.127 200.488 165.466 200.488C165.466 200.488 165.466 200.488 165.837 200.488C169.176 200.488 172.886 199.003 175.483 196.405C175.854 196.033 176.225 195.662 176.596 194.92L188.097 183.413L202.566 196.776C205.163 199.003 208.131 200.117 211.47 200.117C214.809 200.117 218.519 198.632 221.116 196.033C225.939 190.836 225.568 182.67 220.374 177.845L195.517 155.944Z" fill="black"/>
</svg>
